<mxfile host="app.diagrams.net" modified="2023-05-24T16:18:39.503Z" agent="Mozilla/5.0 (Windows NT 10.0; Win64; x64; rv:109.0) Gecko/20100101 Firefox/113.0" etag="5GpKcLCRwtqIFawHmLyO" version="21.2.2" type="device">
  <diagram name="Page-1" id="2YBvvXClWsGukQMizWep">
    <mxGraphModel dx="1730" dy="1609" grid="1" gridSize="10" guides="1" tooltips="1" connect="1" arrows="1" fold="1" page="1" pageScale="1" pageWidth="850" pageHeight="1100" math="0" shadow="0">
      <root>
        <mxCell id="0" />
        <mxCell id="1" parent="0" />
        <mxCell id="Vf9o5WlU7bZVKhMpuBnj-37" value=":FavoritesList" style="shape=umlLifeline;perimeter=lifelinePerimeter;whiteSpace=wrap;html=1;container=1;dropTarget=0;collapsible=0;recursiveResize=0;outlineConnect=0;portConstraint=eastwest;newEdgeStyle={&quot;edgeStyle&quot;:&quot;elbowEdgeStyle&quot;,&quot;elbow&quot;:&quot;vertical&quot;,&quot;curved&quot;:0,&quot;rounded&quot;:0};" vertex="1" parent="1">
          <mxGeometry x="120" y="-50" width="100" height="300" as="geometry" />
        </mxCell>
        <mxCell id="Vf9o5WlU7bZVKhMpuBnj-38" value="AddFavPage" style="shape=umlLifeline;perimeter=lifelinePerimeter;whiteSpace=wrap;html=1;container=1;dropTarget=0;collapsible=0;recursiveResize=0;outlineConnect=0;portConstraint=eastwest;newEdgeStyle={&quot;edgeStyle&quot;:&quot;elbowEdgeStyle&quot;,&quot;elbow&quot;:&quot;vertical&quot;,&quot;curved&quot;:0,&quot;rounded&quot;:0};" vertex="1" parent="1">
          <mxGeometry x="320" y="-50" width="100" height="340" as="geometry" />
        </mxCell>
        <mxCell id="Vf9o5WlU7bZVKhMpuBnj-42" value="" style="html=1;points=[];perimeter=orthogonalPerimeter;outlineConnect=0;targetShapes=umlLifeline;portConstraint=eastwest;newEdgeStyle={&quot;edgeStyle&quot;:&quot;elbowEdgeStyle&quot;,&quot;elbow&quot;:&quot;vertical&quot;,&quot;curved&quot;:0,&quot;rounded&quot;:0};" vertex="1" parent="Vf9o5WlU7bZVKhMpuBnj-38">
          <mxGeometry x="45" y="174" width="10" height="166" as="geometry" />
        </mxCell>
        <mxCell id="Vf9o5WlU7bZVKhMpuBnj-45" value="&lt;div&gt;showOptions()&lt;/div&gt;" style="html=1;verticalAlign=bottom;endArrow=block;edgeStyle=elbowEdgeStyle;elbow=vertical;curved=0;rounded=0;exitX=0.5;exitY=0.813;exitDx=0;exitDy=0;exitPerimeter=0;" edge="1" parent="1" source="Vf9o5WlU7bZVKhMpuBnj-41" target="Vf9o5WlU7bZVKhMpuBnj-38">
          <mxGeometry x="0.1188" width="80" relative="1" as="geometry">
            <mxPoint x="520" y="480" as="sourcePoint" />
            <mxPoint x="530" y="410" as="targetPoint" />
            <Array as="points">
              <mxPoint x="330" y="150" />
              <mxPoint x="340" y="140" />
              <mxPoint x="290" y="150" />
              <mxPoint x="320" y="130" />
            </Array>
            <mxPoint as="offset" />
          </mxGeometry>
        </mxCell>
        <mxCell id="Vf9o5WlU7bZVKhMpuBnj-46" value="selectOptions()" style="html=1;verticalAlign=bottom;endArrow=block;edgeStyle=elbowEdgeStyle;elbow=vertical;curved=0;rounded=0;" edge="1" parent="1" source="Vf9o5WlU7bZVKhMpuBnj-35" target="Vf9o5WlU7bZVKhMpuBnj-42">
          <mxGeometry x="-0.0696" width="80" relative="1" as="geometry">
            <mxPoint x="200" y="190" as="sourcePoint" />
            <mxPoint x="340" y="190" as="targetPoint" />
            <Array as="points">
              <mxPoint x="330" y="180" />
              <mxPoint x="270" y="190" />
              <mxPoint x="280" y="150" />
              <mxPoint x="200" y="350" />
              <mxPoint x="210" y="260" />
              <mxPoint x="190" y="210" />
            </Array>
            <mxPoint as="offset" />
          </mxGeometry>
        </mxCell>
        <mxCell id="Vf9o5WlU7bZVKhMpuBnj-48" value="&lt;div&gt;saveToFavorites()&lt;/div&gt;" style="html=1;verticalAlign=bottom;endArrow=block;edgeStyle=elbowEdgeStyle;elbow=vertical;curved=0;rounded=0;" edge="1" parent="1" source="Vf9o5WlU7bZVKhMpuBnj-38" target="Vf9o5WlU7bZVKhMpuBnj-41">
          <mxGeometry width="80" relative="1" as="geometry">
            <mxPoint x="260" y="270" as="sourcePoint" />
            <mxPoint x="230" y="290" as="targetPoint" />
            <Array as="points">
              <mxPoint x="250" y="250" />
              <mxPoint x="240" y="200" />
              <mxPoint x="340" y="220" />
              <mxPoint x="280" y="190" />
              <mxPoint x="260" y="210" />
              <mxPoint x="330" y="280" />
              <mxPoint x="340" y="230" />
            </Array>
          </mxGeometry>
        </mxCell>
        <mxCell id="Vf9o5WlU7bZVKhMpuBnj-50" value="&lt;div&gt;Alternative&lt;/div&gt;" style="shape=umlFrame;whiteSpace=wrap;html=1;pointerEvents=0;" vertex="1" parent="1">
          <mxGeometry x="-70" y="20" width="590" height="360" as="geometry" />
        </mxCell>
        <mxCell id="Vf9o5WlU7bZVKhMpuBnj-35" value="" style="shape=umlLifeline;perimeter=lifelinePerimeter;whiteSpace=wrap;html=1;container=1;dropTarget=0;collapsible=0;recursiveResize=0;outlineConnect=0;portConstraint=eastwest;newEdgeStyle={&quot;edgeStyle&quot;:&quot;elbowEdgeStyle&quot;,&quot;elbow&quot;:&quot;vertical&quot;,&quot;curved&quot;:0,&quot;rounded&quot;:0};participant=umlActor;" vertex="1" parent="1">
          <mxGeometry x="-140" y="-50" width="20" height="300" as="geometry" />
        </mxCell>
        <mxCell id="Vf9o5WlU7bZVKhMpuBnj-39" value="" style="html=1;points=[];perimeter=orthogonalPerimeter;outlineConnect=0;targetShapes=umlLifeline;portConstraint=eastwest;newEdgeStyle={&quot;edgeStyle&quot;:&quot;elbowEdgeStyle&quot;,&quot;elbow&quot;:&quot;vertical&quot;,&quot;curved&quot;:0,&quot;rounded&quot;:0};" vertex="1" parent="Vf9o5WlU7bZVKhMpuBnj-35">
          <mxGeometry x="5" y="40" width="10" height="210" as="geometry" />
        </mxCell>
        <mxCell id="Vf9o5WlU7bZVKhMpuBnj-36" value="locationPage" style="shape=umlLifeline;perimeter=lifelinePerimeter;whiteSpace=wrap;html=1;container=1;dropTarget=0;collapsible=0;recursiveResize=0;outlineConnect=0;portConstraint=eastwest;newEdgeStyle={&quot;edgeStyle&quot;:&quot;elbowEdgeStyle&quot;,&quot;elbow&quot;:&quot;vertical&quot;,&quot;curved&quot;:0,&quot;rounded&quot;:0};" vertex="1" parent="1">
          <mxGeometry x="-20" y="-50" width="100" height="300" as="geometry" />
        </mxCell>
        <mxCell id="Vf9o5WlU7bZVKhMpuBnj-40" value="" style="html=1;points=[];perimeter=orthogonalPerimeter;outlineConnect=0;targetShapes=umlLifeline;portConstraint=eastwest;newEdgeStyle={&quot;edgeStyle&quot;:&quot;elbowEdgeStyle&quot;,&quot;elbow&quot;:&quot;vertical&quot;,&quot;curved&quot;:0,&quot;rounded&quot;:0};" vertex="1" parent="Vf9o5WlU7bZVKhMpuBnj-36">
          <mxGeometry x="45" y="60" width="10" height="80" as="geometry" />
        </mxCell>
        <mxCell id="Vf9o5WlU7bZVKhMpuBnj-41" value="" style="html=1;points=[];perimeter=orthogonalPerimeter;outlineConnect=0;targetShapes=umlLifeline;portConstraint=eastwest;newEdgeStyle={&quot;edgeStyle&quot;:&quot;elbowEdgeStyle&quot;,&quot;elbow&quot;:&quot;vertical&quot;,&quot;curved&quot;:0,&quot;rounded&quot;:0};" vertex="1" parent="1">
          <mxGeometry x="165" y="30" width="10" height="260" as="geometry" />
        </mxCell>
        <mxCell id="Vf9o5WlU7bZVKhMpuBnj-43" value="&lt;div&gt;addToFavorites()&lt;/div&gt;" style="html=1;verticalAlign=bottom;endArrow=block;edgeStyle=elbowEdgeStyle;elbow=vertical;curved=0;rounded=0;" edge="1" parent="1" source="Vf9o5WlU7bZVKhMpuBnj-35" target="Vf9o5WlU7bZVKhMpuBnj-40">
          <mxGeometry width="80" relative="1" as="geometry">
            <mxPoint x="-60" y="10" as="sourcePoint" />
            <mxPoint x="20" y="10" as="targetPoint" />
            <Array as="points">
              <mxPoint x="-80" y="10" />
            </Array>
          </mxGeometry>
        </mxCell>
        <mxCell id="Vf9o5WlU7bZVKhMpuBnj-44" value="checkIfFavorite()" style="html=1;verticalAlign=bottom;endArrow=block;edgeStyle=elbowEdgeStyle;elbow=vertical;curved=0;rounded=0;" edge="1" parent="1" source="Vf9o5WlU7bZVKhMpuBnj-36">
          <mxGeometry width="80" relative="1" as="geometry">
            <mxPoint x="30" y="40" as="sourcePoint" />
            <mxPoint x="169.5" y="40" as="targetPoint" />
          </mxGeometry>
        </mxCell>
        <mxCell id="Vf9o5WlU7bZVKhMpuBnj-51" value="&lt;div&gt;If location is &lt;br&gt;&lt;/div&gt;&lt;div&gt;already &lt;br&gt;&lt;/div&gt;&lt;div&gt;in favorites&lt;/div&gt;" style="text;html=1;align=center;verticalAlign=middle;resizable=0;points=[];autosize=1;strokeColor=#666666;fillColor=#f5f5f5;fontColor=#333333;" vertex="1" parent="1">
          <mxGeometry x="-70" y="56" width="90" height="60" as="geometry" />
        </mxCell>
        <mxCell id="Vf9o5WlU7bZVKhMpuBnj-52" value="&lt;div&gt;returnMessage()&lt;/div&gt;" style="html=1;verticalAlign=bottom;endArrow=block;edgeStyle=elbowEdgeStyle;elbow=vertical;curved=0;rounded=0;" edge="1" parent="1" source="Vf9o5WlU7bZVKhMpuBnj-41" target="Vf9o5WlU7bZVKhMpuBnj-36">
          <mxGeometry width="80" relative="1" as="geometry">
            <mxPoint x="190" y="80" as="sourcePoint" />
            <mxPoint x="270" y="80" as="targetPoint" />
            <Array as="points">
              <mxPoint x="130" y="80" />
            </Array>
          </mxGeometry>
        </mxCell>
        <mxCell id="Vf9o5WlU7bZVKhMpuBnj-53" value="" style="line;strokeWidth=1;fillColor=none;align=left;verticalAlign=middle;spacingTop=-1;spacingLeft=3;spacingRight=3;rotatable=0;labelPosition=right;points=[];portConstraint=eastwest;strokeColor=inherit;" vertex="1" parent="1">
          <mxGeometry x="-70" y="116" width="590" height="8" as="geometry" />
        </mxCell>
        <mxCell id="Vf9o5WlU7bZVKhMpuBnj-54" value="else" style="text;html=1;align=center;verticalAlign=middle;resizable=0;points=[];autosize=1;strokeColor=#666666;fillColor=#f5f5f5;fontColor=#333333;" vertex="1" parent="1">
          <mxGeometry x="-70" y="124" width="50" height="30" as="geometry" />
        </mxCell>
      </root>
    </mxGraphModel>
  </diagram>
</mxfile>
